<?xml version="1.0" encoding="utf-8"?>
<!-- Generator: Adobe Illustrator 25.4.0, SVG Export Plug-In . SVG Version: 6.00 Build 0)  -->
<svg version="1.1" id="Layer_1" xmlns="http://www.w3.org/2000/svg" xmlns:xlink="http://www.w3.org/1999/xlink" x="0px" y="0px"
	 viewBox="0 0 594 122.1" style="enable-background:new 0 0 594 122.1;" xml:space="preserve">
<style type="text/css">
	.st0{fill:#FFFFFF;}
</style>
<g>
	<path class="st0" d="M137.8,51.9V0.1h7.1V22l18-21.9h9.2l-20.2,24.6l20.3,27.1h-9l-16-21.4l-2.3,2.8v18.6H137.8z"/>
	<path class="st0" d="M206.3,51.9l-9.9-22.3h-9.6v22.3h-7.1V0.1L206,0.2c4.7,1,7.4,3.7,7.9,8.1l0.2,1.9h-0.1v9.3h0.1l-0.2,1.9
		c-0.5,4.4-3.2,7.1-7.9,8.1l-1.8,0.1l9.9,22.3H206.3z M204,22.4l1.1-0.2c0.8-0.3,1.4-0.9,1.7-1.6l0.2-1.1v-9.3l-0.2-1.1
		c-0.3-0.7-0.9-1.3-1.6-1.6L204,7.4V7.2h-17.2v15.2H204z"/>
	<path class="st0" d="M256,51.9h-7.2V39h-20.1v12.9h-7.1V36.6L235.3,0h7L256,36.6L256,51.9z M246.7,31.9l-8-21.2l-7.8,21.2
		L246.7,31.9z"/>
	<path class="st0" d="M277.1,51.9V7.2h-13.7V0.1h34.5v7.1h-13.7v44.7H277.1z"/>
	<path class="st0" d="M305.3,51.9V0.1h34.5v7.1h-27.4v15.2h20.1v7.1h-20.1v15.2h27.4v7.1L305.3,51.9z"/>
	<path class="st0" d="M357.4,51.9l-2-0.2c-2-0.3-3.8-1.2-5.2-2.7c-1.4-1.4-2.4-3.3-2.9-5.3l-0.1-2l0.1-33.5c0.4-2,1.4-3.8,2.9-5.3
		c1.4-1.5,3.2-2.4,5.2-2.7l2-0.2v0.1h14.1V0l2,0.2c2,0.3,3.8,1.2,5.2,2.7c1.5,1.4,2.4,3.3,2.9,5.3l0.1,2l-0.1,33.5
		c-0.4,2-1.4,3.8-2.9,5.3c-1.4,1.5-3.2,2.4-5.2,2.7l-2,0.2v-0.1h-14.1V51.9z M371.5,44.7l1.2-0.2c0.7-0.3,1.3-0.8,1.6-1.5l0.1-1.2
		h0.1V10.2h-0.1l-0.1-1.1c-0.3-0.7-0.9-1.3-1.6-1.6l-1.2-0.2h-14.1l-1.2,0.2c-0.7,0.3-1.3,0.9-1.6,1.6l-0.1,1.1h-0.1v31.5h0.1
		l0.1,1.2c0.3,0.7,0.9,1.3,1.6,1.5l1.2,0.2H371.5z"/>
	<polygon class="st0" points="87.8,90.9 98.8,90.9 111.9,80.4 76.7,53.1 76.7,25.1 65.7,35.9 65.7,53.1 100.9,80.4 	"/>
	<polygon class="st0" points="43.6,99.8 44.9,101.2 49.1,97.4 47.8,96 16,60.9 14.5,59.3 10.4,63.1 11.8,64.7 	"/>
	<path class="st0" d="M0,0v122h122V0H0z M117,117.8H59.6l3.2-26.9h14.3l13.1-10.6L55.1,53.1v-28L19.9,59.7l28.3,31.2h3.7l-3.2,26.9
		H37.9l2-16.6L10.6,68.8L5,74.3V4.2h112V117.8z"/>
	<path class="st0" d="M138.6,122V70.1l26.3,0.1c2,0.4,3.8,1.4,5.3,2.9c1.5,1.4,2.4,3.2,2.7,5.2l0.2,2H173v9.2h0.1l-0.2,1.9
		c-0.3,2-1.2,3.8-2.7,5.2c-1.4,1.5-3.3,2.5-5.3,2.9l-1.8,0.1v0.1h-17.4V122H138.6z M162.9,92.5l1.1-0.2c0.8-0.2,1.4-0.8,1.6-1.6
		l0.2-1.1v-9.2l-0.2-1.2c-0.3-0.8-0.9-1.4-1.6-1.6l-1.1-0.1v-0.1h-17.2v15.2H162.9z"/>
	<path class="st0" d="M179.4,122V70.1h7.1v44.7h27.4v7.2H179.4z"/>
	<path class="st0" d="M254.7,122h-7.3v-12.9h-20.1V122h-7.1v-15.4L234,70h7l13.7,36.6V122z M245.3,102l-8-21.2l-7.8,21.2H245.3z"/>
	<path class="st0" d="M276.8,122V77.2h-13.7v-7.1h34.6v7.1H284V122H276.8z"/>
	<path class="st0" d="M304.8,122V70.1h34.5v7.1h-27.4v15.2h20.1v7.1h-20.1V122H304.8z"/>
	<path class="st0" d="M355.1,122l-2-0.2c-2-0.3-3.8-1.2-5.2-2.7c-1.5-1.4-2.5-3.3-2.9-5.3l-0.1-2l0.1-33.6c0.4-2,1.4-3.8,2.9-5.3
		c1.4-1.5,3.2-2.4,5.2-2.7l2-0.2v0.1h14.2V70l2,0.2c2,0.3,3.8,1.2,5.2,2.7c1.5,1.4,2.5,3.3,2.9,5.3l0.1,2l-0.1,33.6
		c-0.4,2-1.4,3.8-2.9,5.2c-1.4,1.5-3.2,2.4-5.2,2.7l-2,0.2v-0.1h-14.1V122z M369.3,114.7l1.2-0.2c0.7-0.3,1.3-0.8,1.6-1.5l0.1-1.2
		h0.1V80.2h-0.1l-0.1-1c-0.3-0.8-0.9-1.4-1.6-1.6l-1.2-0.2h-14.2l-1.2,0.2c-0.7,0.3-1.3,0.9-1.6,1.6l-0.1,1h-0.1v31.6h0.1l0.1,1.2
		c0.3,0.7,0.9,1.3,1.6,1.5l1.2,0.2L369.3,114.7z"/>
	<path class="st0" d="M414.8,122l-10-22.4h-9.6V122h-7.1V70.1l26.3,0.1c4.8,1,7.4,3.7,8,8.1l0.2,1.9h-0.1v9.4h0.1l-0.2,1.9
		c-0.5,4.4-3.2,7.1-8,8.1l-1.8,0.1l10,22.4H414.8z M412.5,92.5l1.1-0.2c0.8-0.3,1.3-0.9,1.6-1.6l0.2-1.1v-9.4l-0.2-1
		c-0.3-0.8-0.9-1.4-1.6-1.6l-1.1-0.1v-0.1h-17.2v15.2L412.5,92.5z"/>
	<path class="st0" d="M458.9,122V92.1l-10.1,29.4l-10.1-29.4V122h-7.1V70.1h7.1l10.1,29.3l10.1-29.3h7.3V122H458.9z"/>
	<path class="st0" d="M485.4,122l-2-0.2c-2-0.3-3.8-1.2-5.2-2.7c-1.5-1.4-2.5-3.3-2.9-5.3l-0.1-2l0.1-33.6c0.4-2,1.4-3.8,2.9-5.3
		c1.4-1.5,3.2-2.4,5.2-2.7l2-0.2v0.1h14.2V70l2,0.2c2,0.3,3.8,1.2,5.2,2.7c1.5,1.4,2.5,3.3,2.9,5.3l0.1,2l-0.1,33.6
		c-0.4,2-1.4,3.8-2.9,5.2c-1.4,1.5-3.2,2.4-5.2,2.7l-2,0.2v-0.1h-14.1V122z M499.6,114.7l1.2-0.2c0.7-0.3,1.3-0.8,1.6-1.5l0.1-1.2
		h0.2V80.2h-0.1l-0.1-1c-0.3-0.8-0.9-1.4-1.6-1.6l-1.2-0.2h-14.2l-1.2,0.2c-0.7,0.3-1.3,0.9-1.6,1.6l-0.1,1h-0.1v31.6h0.1l0.1,1.2
		c0.3,0.7,0.9,1.3,1.6,1.5l1.2,0.2L499.6,114.7z"/>
	<path class="st0" d="M518.5,122V70.1l26.3,0.1c2,0.4,3.8,1.4,5.3,2.9c1.5,1.4,2.4,3.2,2.7,5.2l0.2,2h-0.1v9.2h0.1l-0.2,1.9
		c-0.3,2-1.2,3.8-2.7,5.2c-1.4,1.5-3.3,2.5-5.3,2.9l-1.8,0.1v0.1h-17.5V122H518.5z M542.8,92.5l1.1-0.2c0.8-0.2,1.4-0.8,1.6-1.6
		l0.2-1.1v-9.2l-0.2-1.2c-0.3-0.8-0.9-1.4-1.6-1.6l-1.1-0.1v-0.1h-17.2v15.2H542.8z"/>
	<path class="st0" d="M569.6,122l-2-0.2c-4.4-0.5-7.1-3.2-8.1-8l-0.1-2v-2.1h7.1v2.1h0.1l0.1,1.2c0.3,0.7,0.9,1.3,1.6,1.5l1.2,0.2
		h14.2l1.2-0.2c0.7-0.3,1.3-0.8,1.6-1.5l0.1-1.2h0.1v-9.2h-0.1l-0.1-1.1c-0.3-0.7-0.9-1.3-1.6-1.6l-1.2-0.2v-0.1l-16.2-0.1
		c-4.1-0.8-7.3-4-8.1-8.1l-0.1-1.9v-9.2l0.1-2c0.4-2,1.4-3.8,2.9-5.3c1.4-1.5,3.2-2.4,5.2-2.7l2-0.2v0.1h14.2V70l2,0.2
		c2,0.3,3.8,1.2,5.2,2.7c1.5,1.4,2.5,3.3,2.9,5.3l0.1,2V82h-7.2v-1.8h-0.1l-0.1-1c-0.3-0.8-0.9-1.4-1.6-1.6l-1.2-0.2h-14.2l-1.2,0.2
		c-0.8,0.3-1.4,0.9-1.6,1.6l-0.1,1h-0.1v9.2h0.1l0.1,1.1c0.3,0.8,0.9,1.4,1.6,1.6l1.2,0.2H584l1.8,0.2c2,0.3,3.8,1.2,5.2,2.7
		c1.5,1.4,2.5,3.3,2.9,5.3l0.1,2v9.2l-0.1,2c-1,4.8-3.7,7.4-8.1,8l-2,0.2L569.6,122z"/>
</g>
</svg>
