<?xml version="1.0" encoding="utf-8"?>
<!-- Generator: Adobe Illustrator 25.4.0, SVG Export Plug-In . SVG Version: 6.00 Build 0)  -->
<svg version="1.1" id="Layer_1" xmlns="http://www.w3.org/2000/svg" xmlns:xlink="http://www.w3.org/1999/xlink" x="0px" y="0px"
	 viewBox="0 0 122 121.9" style="enable-background:new 0 0 122 121.9;" xml:space="preserve">
<style type="text/css">
	.st0{fill:#FFFFFF;}
</style>
<g>
	<polygon class="st0" points="88.4,90.9 99.4,90.9 112.5,80.4 77.3,53.1 77.3,25.1 66.3,35.9 66.3,53.1 101.5,80.4 	"/>
	<polygon class="st0" points="44.2,99.8 45.5,101.2 49.7,97.4 48.4,96 16.6,60.9 15.2,59.3 11,63.1 12.4,64.7 	"/>
	<path class="st0" d="M0,0v121.9h122V0H0z M117,117.8H59.6l3.2-26.9h14.3l13.1-10.6L55.1,53.1v-28L19.9,59.7l28.3,31.2h3.7
		l-3.2,26.9H37.9l2-16.6L10.6,68.8L5,74.3V4.1h112V117.8z"/>
</g>
</svg>
